<svg width="164" height="97" viewBox="0 0 164 97" fill="none" xmlns="http://www.w3.org/2000/svg">
<path d="M30.5922 14.4698L1.52637 35.0591L30.5922 55.0786V42.1137L20.9036 35.0591L30.5922 28.1968V14.4698Z" fill="#1DE4B5"/>
<path d="M1.42944 55.4198L11.1181 62.2845L1.42944 69.3368V82.3017L30.4953 62.2845L1.42944 41.6929V55.4198Z" fill="#1E96FC"/>
<path fill-rule="evenodd" clip-rule="evenodd" d="M139.686 35.5751L139.891 35.0464L134.785 35.0911H134.514L134.426 35.346L134.425 35.3472L127.266 55.3988L120.033 35.3065L119.944 35.0504H114.262L114.459 35.5738L124.364 61.7819L124.457 62.0295H129.488L129.584 61.7841L129.585 61.7832L139.686 35.5755L139.686 35.5751ZM85.8734 35.0482H67.9676V62.068H85.8734V57.6363H73.0507V50.7739H84.2669V46.3038H73.089V39.4799H85.8734V35.0482ZM55.7027 35.2585C54.8166 35.1189 53.9205 35.0539 53.0236 35.0642C50.9118 35.0644 49.1702 35.4377 47.8296 36.2164C46.6104 36.8783 45.6102 37.883 44.9519 39.1071C44.3562 40.1876 44.0393 41.4005 44.0299 42.6353V42.6366C44.0299 44.2819 44.3556 45.6345 45.0475 46.6231L45.0487 46.6247C45.7366 47.5832 46.6401 48.3655 47.6858 48.908L47.688 48.9091C48.7224 49.4265 49.7884 49.8778 50.8796 50.2603C51.9396 50.6394 52.9341 51.0155 53.8631 51.3884L53.8649 51.3891L53.8668 51.3898C54.6521 51.6836 55.3706 52.1328 55.9795 52.7107L55.9807 52.7119C56.232 52.9458 56.4294 53.2321 56.559 53.5506C56.6886 53.869 56.7474 54.2121 56.7312 54.5557L56.731 54.5597V54.5637C56.731 55.6099 56.3789 56.3986 55.6897 56.9774C55.0018 57.5552 53.979 57.8423 52.441 57.8423L52.4397 57.8423C50.9334 57.8535 49.4365 57.6028 48.0155 57.1012L48.0143 57.1008C46.7734 56.6737 45.6092 56.049 44.5663 55.2506L43.9556 54.7644V59.9666L44.1594 60.073C44.9609 60.49 45.7839 60.8639 46.625 61.1929L46.6279 61.194C47.4991 61.5166 48.4035 61.7403 49.3243 61.8609C50.4476 62.0242 51.5818 62.1004 52.7168 62.0886C54.8038 62.0885 56.531 61.7265 57.8686 60.9758C59.1283 60.3033 60.1605 59.2705 60.8343 58.0083L60.8349 58.0071C61.4638 56.8056 61.7906 55.4682 61.7871 54.1111C61.787 52.4835 61.4209 51.1394 60.6489 50.1135L60.6482 50.1125C59.8801 49.1073 58.8848 48.2999 57.7444 47.7568C56.5889 47.1799 55.3925 46.6895 54.165 46.2897L54.1629 46.289C53.1153 45.9631 52.1913 45.6378 51.3903 45.313C50.7398 45.0367 50.1531 44.6289 49.6668 44.1149C49.2864 43.667 49.077 43.0526 49.077 42.2341L49.077 42.2321C49.0722 41.8255 49.1631 41.4235 49.3424 41.0589C49.5217 40.6942 49.7843 40.3772 50.1088 40.1337L50.1112 40.1319L50.1136 40.13C50.8004 39.5748 51.8744 39.2635 53.3991 39.2992L53.4017 39.2992L53.4042 39.2992C54.59 39.2913 55.7638 39.5373 56.8473 40.0208C57.8481 40.5007 58.8197 41.04 59.7567 41.6357L60.3361 42.0042V36.9601L60.1347 36.8549L60.1323 36.8537C59.341 36.4711 58.5989 36.1497 57.9062 35.8901C57.199 35.5944 56.4598 35.3825 55.7038 35.2586L55.7027 35.2585ZM112.208 35.0482H90.2243V39.4799H98.6556V62.068H103.739V39.4799H112.208V35.0482ZM149.57 35.1299H144.465V62.0683H149.57V35.1299Z" fill="#01294B"/>
</svg>
